<svg width="32" height="32" viewBox="0 0 32 32" fill="none" xmlns="http://www.w3.org/2000/svg">
<g clip-path="url(#clip0_3_2)">
<path d="M3.19456 29.5524L2.20116 3.08036C2.1682 2.20604 2.83853 1.46498 3.71176 1.41036L26.2286 0.00315756C26.6728 -0.0246745 27.1089 0.132426 27.4333 0.437229C27.7577 0.742032 27.9416 1.16741 27.9416 1.61256V30.4586C27.9416 30.8987 27.7615 31.3198 27.4434 31.624C27.1252 31.9282 26.6965 32.0891 26.2568 32.0694L4.73376 31.1028C3.89549 31.0651 3.22598 30.3909 3.19456 29.5524Z" fill="#323338"/>
<path d="M11.92 25V6.6H19.878V9.636H15.37V14.121H19.648V17.157H15.37V25H11.92Z" fill="white"/>
</g>
<defs>
<clipPath id="clip0_3_2">
<rect width="32" height="32" fill="white"/>
</clipPath>
</defs>
</svg>
