<svg width="62" height="30" viewBox="0 0 62 30" fill="none" xmlns="http://www.w3.org/2000/svg">
<path d="M-2.33948e-06 28.8V2.6226e-06H12.456V4.752H5.4V11.772H12.096V16.524H5.4V28.8H-2.33948e-06ZM14.625 28.8V2.6226e-06H20.025V24.048H27.117V28.8H14.625ZM36.4534 29.16C33.7534 29.16 31.8214 28.602 30.6574 27.486C29.4934 26.37 28.8934 24.516 28.8574 21.924C28.8094 18.3 28.7854 14.646 28.7854 10.962C28.7854 7.266 28.8094 3.612 28.8574 2.6226e-06H34.2574C34.2094 2.412 34.1794 4.926 34.1674 7.542C34.1674 10.158 34.1734 12.774 34.1854 15.39C34.2094 18.006 34.2334 20.52 34.2574 22.932C34.2574 23.52 34.4494 23.976 34.8334 24.3C35.2174 24.612 35.7574 24.768 36.4534 24.768C37.1614 24.768 37.6954 24.612 38.0554 24.3C38.4274 23.976 38.6134 23.52 38.6134 22.932C38.6374 20.52 38.6554 18.006 38.6674 15.39C38.6914 12.774 38.6974 10.158 38.6854 7.542C38.6854 4.926 38.6614 2.412 38.6134 2.6226e-06H44.0134C44.0734 3.612 44.1034 7.266 44.1034 10.962C44.1034 14.646 44.0734 18.3 44.0134 21.924C43.9774 24.516 43.3774 26.37 42.2134 27.486C41.0614 28.602 39.1414 29.16 36.4534 29.16ZM45.6263 28.8L50.1263 13.824L45.7343 2.6226e-06H51.0263L52.8983 6.732L53.3663 11.664H54.0863L54.5543 6.732L56.3543 2.6226e-06H61.6463L57.4703 14.004L61.7543 28.8H56.4623L54.5543 21.708L54.0863 16.416H53.3663L52.8983 21.708L50.9183 28.8H45.6263Z" fill="#323338"/>
</svg>
